# xmcd
#
# Track frame offsets:
#	150
#	13360
#	27637
#	43352
#	57907
#	72370
#	87087
#	102165
#	122730
#	138455
#	156080
#	176347
#
# Disc length: 2530 seconds
#
# Revision: 1
# Processed by: cddbd v1.5.2PL0 Copyright (c) Steve Scherf et al.
# Submitted via: audiograbber 1.83.01
#
DISCID=a809e00c
DTITLE=Margot Eskens - Auch Matrosen haben Heimweh
DYEAR=1993
DGENRE=Deutsche Schlager
TTITLE0=Auch Matrosen haben Heimweh
TTITLE1=Jonny, komm wieder nach Helgoland
TTITLE2=Denn du mußt fort
TTITLE3=Morgenrot
TTITLE4=Wer einen Seemann liebt
TTITLE5=Du gehörst zu mir
TTITLE6=Der Fremdenlegionär
TTITLE7=Und ein Schiff fährt nach El Salvador
TTITLE8=Die Mädchen vom Hafen
TTITLE9=Ronny, wo ist Deine Mama?
TTITLE10=Madonna der Meere
TTITLE11=Denn sie fahren hinaus auf das Meer
EXTD=
EXTT0=
EXTT1=
EXTT2=
EXTT3=
EXTT4=
EXTT5=
EXTT6=
EXTT7=
EXTT8=
EXTT9=
EXTT10=
EXTT11=
PLAYORDER=
